<svg width="36" height="36" viewBox="0 0 36 36" fill="none" xmlns="http://www.w3.org/2000/svg">
<path d="M33.9336 17.8056C33.9339 14.7029 33.0452 11.6652 31.3726 9.05195C29.7001 6.4387 27.3139 4.35939 24.4963 3.06018C21.6788 1.76096 18.548 1.29625 15.4746 1.72106C12.4012 2.14586 9.51384 3.4424 7.15438 5.45717C4.79492 7.47194 3.06215 10.1206 2.1612 13.0895C1.26025 16.0585 1.22886 19.2234 2.07073 22.2097C2.91261 25.1959 4.59249 27.8784 6.91153 29.9396C9.23056 32.0007 12.0916 33.3543 15.156 33.84V22.4928H11.0376V17.8056H15.156V14.2056C15.156 10.1376 17.5824 7.89119 21.2904 7.89119C22.4965 7.90977 23.6996 8.01565 24.8904 8.20799V12.24H22.8816C20.88 12.24 20.232 13.4712 20.232 14.76V17.8056H24.732L24.012 22.4928H20.232V33.84C24.0503 33.2351 27.5277 31.2881 30.0392 28.3491C32.5507 25.41 33.9315 21.6715 33.9336 17.8056V17.8056Z" fill="url(#paint0_linear_5_20)"/>
<path d="M24.012 22.4928L24.732 17.8056H20.232V14.76C20.232 13.4712 20.8584 12.2184 22.8816 12.2184H24.9264V8.22961C23.7356 8.03727 22.5325 7.93139 21.3264 7.91281C17.6184 7.91281 15.192 10.1592 15.192 14.2272V17.8272H11.0376V22.5144H15.156V33.84C16.8381 34.0992 18.5499 34.0992 20.232 33.84V22.4928H24.012Z" fill="white"/>
<defs>
<linearGradient id="paint0_linear_5_20" x1="6.21361" y1="6.32159" x2="29.1744" y2="29.2824" gradientUnits="userSpaceOnUse">
<stop stop-color="#1677F1"/>
<stop offset="0.18" stop-color="#186EE9"/>
<stop offset="0.46" stop-color="#1D56D3"/>
<stop offset="0.82" stop-color="#262FB0"/>
<stop offset="1" stop-color="#2B189C"/>
</linearGradient>
</defs>
</svg>
