<svg width="36" height="36" viewBox="0 0 36 36" fill="none" xmlns="http://www.w3.org/2000/svg">
<path d="M17.6976 34.4304C26.7719 34.4304 34.128 27.0743 34.128 18C34.128 8.92575 26.7719 1.56961 17.6976 1.56961C8.62335 1.56961 1.26721 8.92575 1.26721 18C1.26721 27.0743 8.62335 34.4304 17.6976 34.4304Z" fill="url(#paint0_linear_5_28)"/>
<path d="M10.8 14.94H13.9824V25.2H10.8V14.94ZM12.3912 9.85681C12.7558 9.85681 13.1121 9.96491 13.4152 10.1674C13.7183 10.37 13.9546 10.6578 14.0941 10.9946C14.2336 11.3315 14.2701 11.7021 14.199 12.0596C14.1279 12.4171 13.9523 12.7456 13.6945 13.0034C13.4368 13.2611 13.1083 13.4367 12.7508 13.5078C12.3932 13.5789 12.0226 13.5424 11.6858 13.4029C11.349 13.2634 11.0612 13.0272 10.8586 12.724C10.6561 12.4209 10.548 12.0646 10.548 11.7C10.548 11.2112 10.7422 10.7423 11.0879 10.3967C11.4335 10.051 11.9024 9.85681 12.3912 9.85681" fill="white"/>
<path d="M15.984 14.94H19.0296V16.3368H19.0728C19.3778 15.8149 19.819 15.3858 20.3492 15.0954C20.8793 14.805 21.4784 14.6641 22.0824 14.688C25.3008 14.688 25.8912 16.8048 25.8912 19.5552V25.2H22.716V20.232C22.716 19.044 22.716 17.5176 21.0672 17.5176C19.4184 17.5176 19.1592 18.8064 19.1592 20.1456V25.1856H15.984V14.94Z" fill="white"/>
<defs>
<linearGradient id="paint0_linear_5_28" x1="29.3184" y1="6.37921" x2="6.07681" y2="29.6208" gradientUnits="userSpaceOnUse">
<stop stop-color="#007BB8"/>
<stop offset="1" stop-color="#0044E9"/>
</linearGradient>
</defs>
</svg>
