<svg width="36" height="36" viewBox="0 0 36 36" fill="none" xmlns="http://www.w3.org/2000/svg">
<path d="M17.784 34.2576C26.8105 34.2576 34.128 26.9402 34.128 17.9136C34.128 8.88707 26.8105 1.56961 17.784 1.56961C8.75746 1.56961 1.44 8.88707 1.44 17.9136C1.44 26.9402 8.75746 34.2576 17.784 34.2576Z" fill="url(#paint0_linear_5_32)"/>
<path d="M26.82 12.312C26.2417 12.5597 25.6345 12.7338 25.0128 12.8304C25.308 12.78 25.7328 12.2544 25.9056 12.0384C26.1708 11.7164 26.3735 11.3477 26.5032 10.9512C26.5032 10.9512 26.5032 10.8792 26.5032 10.8576C26.4886 10.8506 26.4726 10.8469 26.4564 10.8469C26.4402 10.8469 26.4242 10.8506 26.4096 10.8576C25.7271 11.2211 25.0013 11.4969 24.2496 11.6784C24.2241 11.6871 24.1965 11.6876 24.1707 11.6798C24.1449 11.6721 24.1222 11.6565 24.1056 11.6352C24.0488 11.5675 23.9861 11.5049 23.9184 11.448C23.6166 11.1758 23.2709 10.9567 22.896 10.8C22.3925 10.5927 21.8481 10.504 21.3048 10.5408C20.7792 10.5766 20.2668 10.7213 19.8 10.9656C19.3308 11.2102 18.9167 11.5484 18.5832 11.9592C18.2403 12.3804 17.9944 12.8721 17.8632 13.3992C17.7504 13.903 17.7382 14.4242 17.8272 14.9328C17.8272 15.0192 17.8272 15.0336 17.7552 15.0192C14.9263 14.728 12.3064 13.3963 10.404 11.2824C10.3176 11.1816 10.2744 11.1816 10.2024 11.2824C9.80592 11.9873 9.64977 12.8021 9.7576 13.6036C9.86542 14.4052 10.2313 15.1498 10.8 15.7248C10.9444 15.8644 11.0958 15.9965 11.2536 16.1208C10.7517 16.0882 10.2616 15.9535 9.81362 15.7248C9.72722 15.6744 9.68402 15.7248 9.67682 15.7968C9.66286 15.9381 9.66286 16.0803 9.67682 16.2216C9.76301 16.8824 10.023 17.5086 10.4303 18.036C10.8377 18.5635 11.3777 18.9735 11.9952 19.224C12.1465 19.2861 12.3032 19.3343 12.4632 19.368C12.0054 19.4573 11.5361 19.4719 11.0736 19.4112C10.9728 19.4112 10.9368 19.4112 10.9728 19.5408C11.2122 20.1627 11.6063 20.7133 12.1178 21.1404C12.6293 21.5675 13.2414 21.857 13.896 21.9816C14.0256 21.9816 14.1624 21.9816 14.292 22.0392C13.9608 22.5432 12.852 22.9104 12.2976 23.0976C11.3272 23.4448 10.293 23.5775 9.26642 23.4864C9.10082 23.4864 9.07202 23.4864 9.02882 23.4864C8.98562 23.4864 9.02882 23.5512 9.07202 23.5944C9.28082 23.7312 9.48962 23.8536 9.70562 23.9688C10.3474 24.3131 11.0261 24.5836 11.7288 24.7752C13.5444 25.3268 15.4733 25.3902 17.3213 24.9592C19.1692 24.5282 20.871 23.6179 22.2552 22.32C24.4152 20.16 25.1352 17.28 25.1352 14.3064C25.1352 14.1912 25.272 14.1264 25.3512 14.0688C25.9006 13.6468 26.3857 13.1472 26.7912 12.5856C26.8545 12.5032 26.8875 12.4015 26.8848 12.2976V12.2976C26.892 12.24 26.892 12.2832 26.82 12.312Z" fill="white"/>
<defs>
<linearGradient id="paint0_linear_5_32" x1="29.3472" y1="6.35761" x2="6.228" y2="29.4768" gradientUnits="userSpaceOnUse">
<stop stop-color="#00CCFF"/>
<stop offset="1" stop-color="#0080FF"/>
</linearGradient>
</defs>
</svg>
