<svg width="600" height="200" viewBox="0 0 600 200" fill="none" xmlns="http://www.w3.org/2000/svg">
<g clip-path="url(#clip0_2_3)">
<path fill-rule="evenodd" clip-rule="evenodd" d="M137.155 128.087C137.511 127.669 158.949 99.5039 155.699 67.073C154.757 57.663 152.44 50.7358 148.7 45.6712C146.204 43.1413 143.53 40.7755 140.705 38.5846C134.558 35.053 126.539 33.4562 116.584 32.8975C101.32 32.0412 80.5689 35.6436 60.5787 54.4859C60.5787 54.4859 99.5634 32.5514 130.194 63.6879C160.825 96.9468 137.155 128.087 137.155 128.087Z" fill="#D59F35"/>
<path fill-rule="evenodd" clip-rule="evenodd" d="M148.72 45.6925C152.448 50.7571 154.757 57.6784 155.699 67.073C158.949 99.5039 137.511 127.669 137.156 128.087C137.156 128.087 155.857 120.112 168.072 121.78C170.131 114.862 171.233 107.553 171.233 100C171.233 78.9479 162.67 59.8257 148.72 45.6925V45.6925ZM139.169 124.933C138.534 126.001 137.863 127.055 137.156 128.087C137.156 128.087 138.004 126.967 139.169 124.933Z" fill="#EDB536"/>
<path fill-rule="evenodd" clip-rule="evenodd" d="M163.225 134.067C160.867 134.57 158.443 135.22 155.949 136.048C125.544 147.387 134.538 169.421 99.013 178.198C99.013 178.198 99.1087 178.213 99.287 178.225C127.546 174.993 151.385 157.838 163.225 134.067V134.067Z" fill="#3E585D"/>
<path fill-rule="evenodd" clip-rule="evenodd" d="M9.84921 117.072C14.8323 124.473 34.3512 149.432 73.2791 153.567C119.864 158.512 133.267 129.229 164.405 131.571C164.024 132.407 163.635 133.24 163.226 134.063C160.867 134.564 158.443 135.22 155.949 136.048C132.565 144.769 130.234 163.137 115.904 172.736C111.181 174.871 105.174 177.053 98.3528 178.329C95.4685 178.627 92.5394 178.779 89.5736 178.779C50.5618 178.779 17.9339 152.368 9.84921 117.072V117.072Z" fill="#445C65"/>
<path fill-rule="evenodd" clip-rule="evenodd" d="M83.5288 21.4372C74.5051 24.9285 44.8606 39.4964 35.5925 82.777C35.4177 83.605 35.2441 84.4436 35.0847 85.294C34.9299 86.1019 34.7811 86.9286 34.6429 87.7519C27.5599 129.615 60.2103 147.567 76.7303 153.87C75.5965 153.789 74.452 153.692 73.2792 153.567C35.5701 149.561 16.0725 126.012 10.3583 117.814C9.97678 116.734 9.63781 115.677 9.33308 114.636C8.40828 109.893 7.91812 105 7.91812 100C7.91812 58.4627 41.2618 24.4254 83.5288 21.4372V21.4372Z" fill="#83B5B4"/>
<path fill-rule="evenodd" clip-rule="evenodd" d="M83.5287 21.4372C74.5051 24.9285 44.8606 39.4964 35.5925 82.777C35.5594 83.5566 35.2913 84.3148 35.1248 85.0967H35.1213L35.1154 85.1357H35.1118L35.1083 85.1759L35.0988 85.216L35.0929 85.2562L35.0846 85.294L35.0764 85.3318L35.0693 85.3684L35.0634 85.4085L35.0539 85.4463L35.048 85.483L35.0409 85.5207L35.0339 85.5585L35.0256 85.5975L34.7669 87.0172L34.7634 87.0574L34.7551 87.0952L34.7539 87.1058C37.6724 80.253 43.513 70.2407 55.1799 58.3823C58.3748 55.1343 61.8402 52.4154 65.5276 50.137C83.9457 35.0814 102.575 32.1109 116.584 32.8975C126.529 33.4562 134.543 35.0507 140.691 38.5716C126.697 27.7219 108.92 21.221 89.5736 21.221C87.5398 21.221 85.5236 21.2954 83.5287 21.4372V21.4372Z" fill="#9ED1CF"/>
<path fill-rule="evenodd" clip-rule="evenodd" d="M221.388 157.117C221.388 157.117 199.024 119.916 155.167 133.802C124.761 145.629 134.538 169.039 99.013 178.195C99.013 178.195 118.007 180.549 143.417 159.887C168.827 139.221 209.38 148.817 221.388 157.117Z" fill="#3E585D"/>
<path d="M245 105.32C241.8 105.32 238.899 104.68 236.296 103.4C233.693 102.12 231.453 100.392 229.576 98.216C227.699 95.9973 226.248 93.5227 225.224 90.792C224.2 88.0187 223.688 85.1813 223.688 82.28C223.688 79.2507 224.221 76.3707 225.288 73.64C226.355 70.8667 227.848 68.4133 229.768 66.28C231.731 64.104 234.013 62.3973 236.616 61.16C239.219 59.88 242.035 59.24 245.064 59.24C248.264 59.24 251.165 59.9013 253.768 61.224C256.371 62.5467 258.589 64.3173 260.424 66.536C262.301 68.7547 263.752 71.2293 264.776 73.96C265.8 76.6907 266.312 79.4853 266.312 82.344C266.312 85.3733 265.779 88.2747 264.712 91.048C263.645 93.7787 262.152 96.232 260.232 98.408C258.312 100.541 256.051 102.227 253.448 103.464C250.845 104.701 248.029 105.32 245 105.32ZM228.168 82.28C228.168 84.7547 228.573 87.144 229.384 89.448C230.195 91.7093 231.347 93.736 232.84 95.528C234.333 97.2773 236.104 98.6853 238.152 99.752C240.243 100.776 242.525 101.288 245 101.288C247.603 101.288 249.928 100.755 251.976 99.688C254.067 98.5787 255.837 97.128 257.288 95.336C258.781 93.5013 259.912 91.4533 260.68 89.192C261.448 86.9307 261.832 84.6267 261.832 82.28C261.832 79.8053 261.427 77.4373 260.616 75.176C259.805 72.9147 258.632 70.888 257.096 69.096C255.603 67.304 253.832 65.896 251.784 64.872C249.736 63.848 247.475 63.336 245 63.336C242.44 63.336 240.115 63.8693 238.024 64.936C235.976 66.0027 234.205 67.4533 232.712 69.288C231.261 71.08 230.131 73.1067 229.32 75.368C228.552 77.6293 228.168 79.9333 228.168 82.28ZM293.255 105.32C289.671 105.32 286.641 104.68 284.167 103.4C281.692 102.12 279.729 100.413 278.279 98.28C276.828 96.104 275.761 93.6507 275.079 90.92C274.439 88.1893 274.119 85.3733 274.119 82.472V59.56H278.535V82.472C278.535 84.8187 278.769 87.1227 279.239 89.384C279.751 91.6453 280.561 93.672 281.671 95.464C282.78 97.256 284.273 98.6853 286.151 99.752C288.028 100.776 290.375 101.288 293.191 101.288C296.092 101.288 298.481 100.755 300.359 99.688C302.279 98.5787 303.772 97.128 304.839 95.336C305.948 93.544 306.737 91.5387 307.207 89.32C307.676 87.0587 307.911 84.776 307.911 82.472V59.56H312.391V82.472C312.391 85.5013 312.049 88.4027 311.367 91.176C310.684 93.9493 309.575 96.3813 308.039 98.472C306.545 100.563 304.583 102.227 302.151 103.464C299.719 104.701 296.753 105.32 293.255 105.32ZM335.276 59.56H339.052L357.932 105H353.196L347.308 90.792H326.892L321.068 105H316.268L335.276 59.56ZM346.284 87.272L337.132 64.808L327.852 87.272H346.284ZM364.446 105V59.56H368.926V101.032H395.166V105H364.446ZM432.287 101.032V105H401.759V59.56H431.711V63.528H406.239V79.912H428.447V83.688H406.239V101.032H432.287ZM467.069 68.072C466.429 67.3467 465.682 66.7067 464.829 66.152C463.975 65.5547 463.015 65.0427 461.949 64.616C460.882 64.1893 459.73 63.848 458.493 63.592C457.298 63.336 456.018 63.208 454.653 63.208C450.685 63.208 447.762 63.976 445.885 65.512C444.05 67.0053 443.133 69.0533 443.133 71.656C443.133 73.448 443.559 74.856 444.413 75.88C445.309 76.904 446.695 77.736 448.573 78.376C450.45 79.016 452.839 79.6773 455.741 80.36C458.983 81.0427 461.778 81.8533 464.125 82.792C466.471 83.7307 468.285 85.0107 469.565 86.632C470.845 88.2107 471.485 90.3653 471.485 93.096C471.485 95.1867 471.079 97 470.269 98.536C469.458 100.072 468.327 101.352 466.877 102.376C465.426 103.4 463.698 104.168 461.693 104.68C459.687 105.149 457.49 105.384 455.101 105.384C452.754 105.384 450.493 105.149 448.317 104.68C446.183 104.168 444.157 103.443 442.237 102.504C440.317 101.523 438.525 100.285 436.861 98.792L439.101 95.144C439.911 95.9973 440.871 96.808 441.981 97.576C443.133 98.3013 444.391 98.9627 445.757 99.56C447.165 100.157 448.658 100.627 450.237 100.968C451.858 101.267 453.522 101.416 455.229 101.416C458.855 101.416 461.671 100.755 463.677 99.432C465.725 98.1093 466.749 96.1467 466.749 93.544C466.749 91.6667 466.237 90.1733 465.213 89.064C464.189 87.912 462.653 86.9733 460.605 86.248C458.557 85.5227 456.039 84.8187 453.053 84.136C449.895 83.4107 447.229 82.6 445.053 81.704C442.877 80.808 441.234 79.6347 440.125 78.184C439.058 76.6907 438.525 74.728 438.525 72.296C438.525 69.48 439.207 67.112 440.573 65.192C441.981 63.2293 443.901 61.7573 446.333 60.776C448.765 59.752 451.559 59.24 454.717 59.24C456.722 59.24 458.578 59.4533 460.285 59.88C462.034 60.264 463.634 60.84 465.085 61.608C466.578 62.376 467.965 63.336 469.245 64.488L467.069 68.072ZM476.376 81.96C476.376 79.1867 476.845 76.4773 477.784 73.832C478.765 71.144 480.173 68.712 482.008 66.536C483.842 64.3173 486.104 62.568 488.792 61.288C491.48 59.9653 494.53 59.304 497.944 59.304C501.997 59.304 505.453 60.2427 508.312 62.12C511.213 63.9547 513.346 66.3227 514.712 69.224L511.192 71.4C510.21 69.3947 508.973 67.816 507.479 66.664C505.986 65.4693 504.386 64.616 502.68 64.104C501.016 63.592 499.352 63.336 497.688 63.336C494.957 63.336 492.546 63.8907 490.456 65C488.365 66.0667 486.594 67.5173 485.144 69.352C483.736 71.144 482.669 73.1707 481.944 75.432C481.218 77.6507 480.856 79.912 480.856 82.216C480.856 84.7333 481.282 87.144 482.135 89.448C482.989 91.752 484.184 93.8 485.72 95.592C487.256 97.3413 489.048 98.7493 491.096 99.816C493.186 100.84 495.448 101.352 497.88 101.352C499.586 101.352 501.336 101.053 503.128 100.456C504.92 99.8587 506.584 98.9413 508.12 97.704C509.698 96.4667 510.957 94.8667 511.896 92.904L515.608 94.824C514.669 97.0853 513.218 99.0053 511.256 100.584C509.293 102.163 507.096 103.357 504.664 104.168C502.274 104.979 499.928 105.384 497.624 105.384C494.509 105.384 491.65 104.723 489.048 103.4C486.445 102.035 484.184 100.243 482.264 98.024C480.386 95.7627 478.936 93.2453 477.911 90.472C476.888 87.656 476.376 84.8187 476.376 81.96ZM553.787 101.032V105H523.259V59.56H553.211V63.528H527.739V79.912H549.947V83.688H527.739V101.032H553.787Z" fill="#2B2A29"/>
<path fill-rule="evenodd" clip-rule="evenodd" d="M243.69 90.6659L248.809 90.6647L270.221 113.629L265.621 113.699L243.69 90.6659Z" fill="#2B2A29"/>
<path d="M234.225 140V122.25H235.975V140H234.225ZM251.151 140H249.451V132.725C249.451 131.192 249.226 130.075 248.776 129.375C248.326 128.658 247.618 128.3 246.651 128.3C245.985 128.3 245.326 128.467 244.676 128.8C244.026 129.117 243.451 129.558 242.951 130.125C242.468 130.675 242.118 131.308 241.901 132.025V140H240.201V126.975H241.751V129.925C242.101 129.292 242.56 128.742 243.126 128.275C243.693 127.792 244.335 127.417 245.051 127.15C245.768 126.883 246.51 126.75 247.276 126.75C247.993 126.75 248.601 126.883 249.101 127.15C249.601 127.417 250.001 127.8 250.301 128.3C250.601 128.783 250.818 129.375 250.951 130.075C251.085 130.758 251.151 131.525 251.151 132.375V140ZM265.851 140H264.151V132.725C264.151 131.192 263.926 130.075 263.476 129.375C263.026 128.658 262.318 128.3 261.351 128.3C260.685 128.3 260.026 128.467 259.376 128.8C258.726 129.117 258.151 129.558 257.651 130.125C257.168 130.675 256.818 131.308 256.601 132.025V140H254.901V126.975H256.451V129.925C256.801 129.292 257.26 128.742 257.826 128.275C258.393 127.792 259.035 127.417 259.751 127.15C260.468 126.883 261.21 126.75 261.976 126.75C262.693 126.75 263.301 126.883 263.801 127.15C264.301 127.417 264.701 127.8 265.001 128.3C265.301 128.783 265.518 129.375 265.651 130.075C265.785 130.758 265.851 131.525 265.851 132.375V140ZM275.152 140.25C274.218 140.25 273.352 140.075 272.552 139.725C271.768 139.358 271.085 138.867 270.502 138.25C269.935 137.617 269.493 136.9 269.177 136.1C268.86 135.283 268.702 134.425 268.702 133.525C268.702 132.592 268.86 131.725 269.177 130.925C269.493 130.108 269.943 129.392 270.527 128.775C271.11 128.142 271.793 127.65 272.577 127.3C273.377 126.933 274.243 126.75 275.177 126.75C276.11 126.75 276.968 126.933 277.752 127.3C278.535 127.65 279.218 128.142 279.802 128.775C280.385 129.392 280.835 130.108 281.152 130.925C281.468 131.725 281.627 132.592 281.627 133.525C281.627 134.425 281.468 135.283 281.152 136.1C280.835 136.9 280.385 137.617 279.802 138.25C279.235 138.867 278.552 139.358 277.752 139.725C276.968 140.075 276.102 140.25 275.152 140.25ZM270.427 133.55C270.427 134.517 270.635 135.4 271.052 136.2C271.485 136.983 272.06 137.608 272.777 138.075C273.493 138.525 274.285 138.75 275.152 138.75C276.018 138.75 276.81 138.517 277.527 138.05C278.243 137.583 278.818 136.95 279.252 136.15C279.685 135.333 279.902 134.45 279.902 133.5C279.902 132.533 279.685 131.65 279.252 130.85C278.818 130.05 278.243 129.417 277.527 128.95C276.81 128.483 276.018 128.25 275.152 128.25C274.285 128.25 273.493 128.492 272.777 128.975C272.077 129.458 271.51 130.1 271.077 130.9C270.643 131.683 270.427 132.567 270.427 133.55ZM288.03 140L282.755 126.975H284.53L288.98 138.3L293.455 126.975H295.13L289.855 140H288.03ZM296.243 136.25C296.243 135.433 296.476 134.733 296.943 134.15C297.41 133.55 298.051 133.092 298.868 132.775C299.701 132.442 300.66 132.275 301.743 132.275C302.376 132.275 303.035 132.325 303.718 132.425C304.401 132.525 305.01 132.675 305.543 132.875V131.775C305.543 130.675 305.218 129.8 304.568 129.15C303.918 128.5 303.018 128.175 301.868 128.175C301.168 128.175 300.476 128.308 299.793 128.575C299.126 128.825 298.426 129.2 297.693 129.7L297.043 128.5C297.893 127.917 298.726 127.483 299.543 127.2C300.36 126.9 301.193 126.75 302.043 126.75C303.643 126.75 304.91 127.208 305.843 128.125C306.776 129.042 307.243 130.308 307.243 131.925V137.95C307.243 138.183 307.293 138.358 307.393 138.475C307.493 138.575 307.651 138.633 307.868 138.65V140C307.685 140.017 307.526 140.033 307.393 140.05C307.26 140.067 307.16 140.067 307.093 140.05C306.676 140.033 306.36 139.9 306.143 139.65C305.926 139.4 305.81 139.133 305.793 138.85L305.768 137.9C305.185 138.65 304.426 139.233 303.493 139.65C302.56 140.05 301.61 140.25 300.643 140.25C299.81 140.25 299.051 140.075 298.368 139.725C297.701 139.358 297.176 138.875 296.793 138.275C296.426 137.658 296.243 136.983 296.243 136.25ZM304.968 137.25C305.151 137.017 305.293 136.792 305.393 136.575C305.493 136.358 305.543 136.167 305.543 136V134.1C304.976 133.883 304.385 133.717 303.768 133.6C303.168 133.483 302.56 133.425 301.943 133.425C300.726 133.425 299.743 133.667 298.993 134.15C298.243 134.633 297.868 135.292 297.868 136.125C297.868 136.608 297.993 137.067 298.243 137.5C298.493 137.917 298.86 138.267 299.343 138.55C299.826 138.817 300.393 138.95 301.043 138.95C301.86 138.95 302.618 138.792 303.318 138.475C304.035 138.158 304.585 137.75 304.968 137.25ZM317.193 139.375C317.06 139.425 316.852 139.517 316.568 139.65C316.285 139.783 315.943 139.9 315.543 140C315.143 140.1 314.71 140.15 314.243 140.15C313.76 140.15 313.302 140.058 312.868 139.875C312.452 139.692 312.118 139.417 311.868 139.05C311.618 138.667 311.493 138.2 311.493 137.65V128.325H309.693V126.975H311.493V122.575H313.193V126.975H316.193V128.325H313.193V137.175C313.227 137.642 313.393 137.992 313.693 138.225C314.01 138.458 314.368 138.575 314.768 138.575C315.235 138.575 315.66 138.5 316.043 138.35C316.427 138.183 316.66 138.067 316.743 138L317.193 139.375ZM319.442 140V126.975H321.142V140H319.442ZM319.442 124.25V121.75H321.142V124.25H319.442ZM330.562 140.25C329.628 140.25 328.762 140.075 327.962 139.725C327.178 139.358 326.495 138.867 325.912 138.25C325.345 137.617 324.903 136.9 324.587 136.1C324.27 135.283 324.112 134.425 324.112 133.525C324.112 132.592 324.27 131.725 324.587 130.925C324.903 130.108 325.353 129.392 325.937 128.775C326.52 128.142 327.203 127.65 327.987 127.3C328.787 126.933 329.653 126.75 330.587 126.75C331.52 126.75 332.378 126.933 333.162 127.3C333.945 127.65 334.628 128.142 335.212 128.775C335.795 129.392 336.245 130.108 336.562 130.925C336.878 131.725 337.037 132.592 337.037 133.525C337.037 134.425 336.878 135.283 336.562 136.1C336.245 136.9 335.795 137.617 335.212 138.25C334.645 138.867 333.962 139.358 333.162 139.725C332.378 140.075 331.512 140.25 330.562 140.25ZM325.837 133.55C325.837 134.517 326.045 135.4 326.462 136.2C326.895 136.983 327.47 137.608 328.187 138.075C328.903 138.525 329.695 138.75 330.562 138.75C331.428 138.75 332.22 138.517 332.937 138.05C333.653 137.583 334.228 136.95 334.662 136.15C335.095 135.333 335.312 134.45 335.312 133.5C335.312 132.533 335.095 131.65 334.662 130.85C334.228 130.05 333.653 129.417 332.937 128.95C332.22 128.483 331.428 128.25 330.562 128.25C329.695 128.25 328.903 128.492 328.187 128.975C327.487 129.458 326.92 130.1 326.487 130.9C326.053 131.683 325.837 132.567 325.837 133.55ZM350.955 140H349.255V132.725C349.255 131.192 349.03 130.075 348.58 129.375C348.13 128.658 347.422 128.3 346.455 128.3C345.788 128.3 345.13 128.467 344.48 128.8C343.83 129.117 343.255 129.558 342.755 130.125C342.272 130.675 341.922 131.308 341.705 132.025V140H340.005V126.975H341.555V129.925C341.905 129.292 342.363 128.742 342.93 128.275C343.497 127.792 344.138 127.417 344.855 127.15C345.572 126.883 346.313 126.75 347.08 126.75C347.797 126.75 348.405 126.883 348.905 127.15C349.405 127.417 349.805 127.8 350.105 128.3C350.405 128.783 350.622 129.375 350.755 130.075C350.888 130.758 350.955 131.525 350.955 132.375V140ZM361.202 140V126.975H362.902V140H361.202ZM361.202 124.25V121.75H362.902V124.25H361.202ZM371.046 140.25C369.98 140.25 368.988 140.075 368.071 139.725C367.155 139.375 366.363 138.842 365.696 138.125L366.396 136.925C367.13 137.608 367.863 138.108 368.596 138.425C369.346 138.725 370.138 138.875 370.971 138.875C371.988 138.875 372.813 138.675 373.446 138.275C374.08 137.858 374.396 137.267 374.396 136.5C374.396 135.983 374.238 135.592 373.921 135.325C373.621 135.042 373.18 134.817 372.596 134.65C372.03 134.467 371.346 134.275 370.546 134.075C369.646 133.825 368.888 133.567 368.271 133.3C367.671 133.017 367.213 132.667 366.896 132.25C366.596 131.817 366.446 131.258 366.446 130.575C366.446 129.725 366.655 129.025 367.071 128.475C367.505 127.908 368.088 127.483 368.821 127.2C369.571 126.9 370.405 126.75 371.321 126.75C372.321 126.75 373.205 126.908 373.971 127.225C374.738 127.542 375.363 127.983 375.846 128.55L375.021 129.7C374.555 129.167 373.996 128.775 373.346 128.525C372.713 128.258 372.005 128.125 371.221 128.125C370.688 128.125 370.18 128.2 369.696 128.35C369.213 128.483 368.813 128.717 368.496 129.05C368.196 129.367 368.046 129.808 368.046 130.375C368.046 130.842 368.163 131.208 368.396 131.475C368.63 131.725 368.98 131.942 369.446 132.125C369.913 132.292 370.488 132.475 371.171 132.675C372.155 132.942 373.013 133.217 373.746 133.5C374.48 133.767 375.046 134.117 375.446 134.55C375.846 134.983 376.046 135.592 376.046 136.375C376.046 137.592 375.588 138.542 374.671 139.225C373.755 139.908 372.546 140.25 371.046 140.25ZM384.429 136.25C384.429 135.433 384.662 134.733 385.129 134.15C385.595 133.55 386.237 133.092 387.054 132.775C387.887 132.442 388.845 132.275 389.929 132.275C390.562 132.275 391.22 132.325 391.904 132.425C392.587 132.525 393.195 132.675 393.729 132.875V131.775C393.729 130.675 393.404 129.8 392.754 129.15C392.104 128.5 391.204 128.175 390.054 128.175C389.354 128.175 388.662 128.308 387.979 128.575C387.312 128.825 386.612 129.2 385.879 129.7L385.229 128.5C386.079 127.917 386.912 127.483 387.729 127.2C388.545 126.9 389.379 126.75 390.229 126.75C391.829 126.75 393.095 127.208 394.029 128.125C394.962 129.042 395.429 130.308 395.429 131.925V137.95C395.429 138.183 395.479 138.358 395.579 138.475C395.679 138.575 395.837 138.633 396.054 138.65V140C395.87 140.017 395.712 140.033 395.579 140.05C395.445 140.067 395.345 140.067 395.279 140.05C394.862 140.033 394.545 139.9 394.329 139.65C394.112 139.4 393.995 139.133 393.979 138.85L393.954 137.9C393.37 138.65 392.612 139.233 391.679 139.65C390.745 140.05 389.795 140.25 388.829 140.25C387.995 140.25 387.237 140.075 386.554 139.725C385.887 139.358 385.362 138.875 384.979 138.275C384.612 137.658 384.429 136.983 384.429 136.25ZM393.154 137.25C393.337 137.017 393.479 136.792 393.579 136.575C393.679 136.358 393.729 136.167 393.729 136V134.1C393.162 133.883 392.57 133.717 391.954 133.6C391.354 133.483 390.745 133.425 390.129 133.425C388.912 133.425 387.929 133.667 387.179 134.15C386.429 134.633 386.054 135.292 386.054 136.125C386.054 136.608 386.179 137.067 386.429 137.5C386.679 137.917 387.045 138.267 387.529 138.55C388.012 138.817 388.579 138.95 389.229 138.95C390.045 138.95 390.804 138.792 391.504 138.475C392.22 138.158 392.77 137.75 393.154 137.25ZM409.999 140.25C408.932 140.25 407.94 140.075 407.024 139.725C406.107 139.375 405.315 138.842 404.649 138.125L405.349 136.925C406.082 137.608 406.815 138.108 407.549 138.425C408.299 138.725 409.09 138.875 409.924 138.875C410.94 138.875 411.765 138.675 412.399 138.275C413.032 137.858 413.349 137.267 413.349 136.5C413.349 135.983 413.19 135.592 412.874 135.325C412.574 135.042 412.132 134.817 411.549 134.65C410.982 134.467 410.299 134.275 409.499 134.075C408.599 133.825 407.84 133.567 407.224 133.3C406.624 133.017 406.165 132.667 405.849 132.25C405.549 131.817 405.399 131.258 405.399 130.575C405.399 129.725 405.607 129.025 406.024 128.475C406.457 127.908 407.04 127.483 407.774 127.2C408.524 126.9 409.357 126.75 410.274 126.75C411.274 126.75 412.157 126.908 412.924 127.225C413.69 127.542 414.315 127.983 414.799 128.55L413.974 129.7C413.507 129.167 412.949 128.775 412.299 128.525C411.665 128.258 410.957 128.125 410.174 128.125C409.64 128.125 409.132 128.2 408.649 128.35C408.165 128.483 407.765 128.717 407.449 129.05C407.149 129.367 406.999 129.808 406.999 130.375C406.999 130.842 407.115 131.208 407.349 131.475C407.582 131.725 407.932 131.942 408.399 132.125C408.865 132.292 409.44 132.475 410.124 132.675C411.107 132.942 411.965 133.217 412.699 133.5C413.432 133.767 413.999 134.117 414.399 134.55C414.799 134.983 414.999 135.592 414.999 136.375C414.999 137.592 414.54 138.542 413.624 139.225C412.707 139.908 411.499 140.25 409.999 140.25ZM424.184 139.375C424.05 139.425 423.842 139.517 423.559 139.65C423.275 139.783 422.934 139.9 422.534 140C422.134 140.1 421.7 140.15 421.234 140.15C420.75 140.15 420.292 140.058 419.859 139.875C419.442 139.692 419.109 139.417 418.859 139.05C418.609 138.667 418.484 138.2 418.484 137.65V128.325H416.684V126.975H418.484V122.575H420.184V126.975H423.184V128.325H420.184V137.175C420.217 137.642 420.384 137.992 420.684 138.225C421 138.458 421.359 138.575 421.759 138.575C422.225 138.575 422.65 138.5 423.034 138.35C423.417 138.183 423.65 138.067 423.734 138L424.184 139.375ZM425.383 136.25C425.383 135.433 425.616 134.733 426.083 134.15C426.549 133.55 427.191 133.092 428.008 132.775C428.841 132.442 429.799 132.275 430.883 132.275C431.516 132.275 432.174 132.325 432.858 132.425C433.541 132.525 434.149 132.675 434.683 132.875V131.775C434.683 130.675 434.358 129.8 433.708 129.15C433.058 128.5 432.158 128.175 431.008 128.175C430.308 128.175 429.616 128.308 428.933 128.575C428.266 128.825 427.566 129.2 426.833 129.7L426.183 128.5C427.033 127.917 427.866 127.483 428.683 127.2C429.499 126.9 430.333 126.75 431.183 126.75C432.783 126.75 434.049 127.208 434.983 128.125C435.916 129.042 436.383 130.308 436.383 131.925V137.95C436.383 138.183 436.433 138.358 436.533 138.475C436.633 138.575 436.791 138.633 437.008 138.65V140C436.824 140.017 436.666 140.033 436.533 140.05C436.399 140.067 436.299 140.067 436.233 140.05C435.816 140.033 435.499 139.9 435.283 139.65C435.066 139.4 434.949 139.133 434.933 138.85L434.908 137.9C434.324 138.65 433.566 139.233 432.633 139.65C431.699 140.05 430.749 140.25 429.783 140.25C428.949 140.25 428.191 140.075 427.508 139.725C426.841 139.358 426.316 138.875 425.933 138.275C425.566 137.658 425.383 136.983 425.383 136.25ZM434.108 137.25C434.291 137.017 434.433 136.792 434.533 136.575C434.633 136.358 434.683 136.167 434.683 136V134.1C434.116 133.883 433.524 133.717 432.908 133.6C432.308 133.483 431.699 133.425 431.083 133.425C429.866 133.425 428.883 133.667 428.133 134.15C427.383 134.633 427.008 135.292 427.008 136.125C427.008 136.608 427.133 137.067 427.383 137.5C427.633 137.917 427.999 138.267 428.483 138.55C428.966 138.817 429.533 138.95 430.183 138.95C430.999 138.95 431.758 138.792 432.458 138.475C433.174 138.158 433.724 137.75 434.108 137.25ZM446.333 139.375C446.2 139.425 445.991 139.517 445.708 139.65C445.425 139.783 445.083 139.9 444.683 140C444.283 140.1 443.85 140.15 443.383 140.15C442.9 140.15 442.441 140.058 442.008 139.875C441.591 139.692 441.258 139.417 441.008 139.05C440.758 138.667 440.633 138.2 440.633 137.65V128.325H438.833V126.975H440.633V122.575H442.333V126.975H445.333V128.325H442.333V137.175C442.366 137.642 442.533 137.992 442.833 138.225C443.15 138.458 443.508 138.575 443.908 138.575C444.375 138.575 444.8 138.5 445.183 138.35C445.566 138.183 445.8 138.067 445.883 138L446.333 139.375ZM453.987 140.25C453.054 140.25 452.187 140.075 451.387 139.725C450.587 139.358 449.896 138.867 449.312 138.25C448.729 137.617 448.271 136.892 447.937 136.075C447.621 135.258 447.462 134.383 447.462 133.45C447.462 132.233 447.737 131.117 448.287 130.1C448.854 129.083 449.629 128.275 450.612 127.675C451.596 127.058 452.712 126.75 453.962 126.75C455.246 126.75 456.362 127.058 457.312 127.675C458.279 128.292 459.037 129.108 459.587 130.125C460.137 131.125 460.412 132.225 460.412 133.425C460.412 133.558 460.412 133.692 460.412 133.825C460.412 133.942 460.404 134.033 460.387 134.1H449.237C449.321 135.033 449.579 135.867 450.012 136.6C450.462 137.317 451.037 137.892 451.737 138.325C452.454 138.742 453.229 138.95 454.062 138.95C454.912 138.95 455.712 138.733 456.462 138.3C457.229 137.867 457.762 137.3 458.062 136.6L459.537 137C459.271 137.617 458.862 138.175 458.312 138.675C457.762 139.175 457.112 139.567 456.362 139.85C455.629 140.117 454.837 140.25 453.987 140.25ZM449.187 132.875H458.812C458.746 131.925 458.487 131.092 458.037 130.375C457.604 129.658 457.029 129.1 456.312 128.7C455.612 128.283 454.837 128.075 453.987 128.075C453.137 128.075 452.362 128.283 451.662 128.7C450.962 129.1 450.387 129.667 449.937 130.4C449.504 131.117 449.254 131.942 449.187 132.875ZM475.207 140.25C474.274 140.25 473.407 140.075 472.607 139.725C471.824 139.358 471.141 138.867 470.557 138.25C469.991 137.617 469.549 136.9 469.232 136.1C468.916 135.283 468.757 134.425 468.757 133.525C468.757 132.592 468.916 131.725 469.232 130.925C469.549 130.108 469.999 129.392 470.582 128.775C471.166 128.142 471.849 127.65 472.632 127.3C473.432 126.933 474.299 126.75 475.232 126.75C476.166 126.75 477.024 126.933 477.807 127.3C478.591 127.65 479.274 128.142 479.857 128.775C480.441 129.392 480.891 130.108 481.207 130.925C481.524 131.725 481.682 132.592 481.682 133.525C481.682 134.425 481.524 135.283 481.207 136.1C480.891 136.9 480.441 137.617 479.857 138.25C479.291 138.867 478.607 139.358 477.807 139.725C477.024 140.075 476.157 140.25 475.207 140.25ZM470.482 133.55C470.482 134.517 470.691 135.4 471.107 136.2C471.541 136.983 472.116 137.608 472.832 138.075C473.549 138.525 474.341 138.75 475.207 138.75C476.074 138.75 476.866 138.517 477.582 138.05C478.299 137.583 478.874 136.95 479.307 136.15C479.741 135.333 479.957 134.45 479.957 133.5C479.957 132.533 479.741 131.65 479.307 130.85C478.874 130.05 478.299 129.417 477.582 128.95C476.866 128.483 476.074 128.25 475.207 128.25C474.341 128.25 473.549 128.492 472.832 128.975C472.132 129.458 471.566 130.1 471.132 130.9C470.699 131.683 470.482 132.567 470.482 133.55ZM485.056 140V128.325H483.256V126.975H485.056V126.625C485.056 125.558 485.206 124.642 485.506 123.875C485.822 123.108 486.264 122.525 486.831 122.125C487.414 121.708 488.097 121.5 488.881 121.5C489.397 121.5 489.897 121.575 490.381 121.725C490.864 121.875 491.281 122.075 491.631 122.325L491.106 123.55C490.889 123.367 490.606 123.225 490.256 123.125C489.906 123.025 489.556 122.975 489.206 122.975C488.422 122.975 487.814 123.283 487.381 123.9C486.964 124.517 486.756 125.408 486.756 126.575V126.975H490.356V128.325H486.756V140H485.056ZM518.118 140H516.418V132.725C516.418 131.208 516.176 130.092 515.693 129.375C515.21 128.658 514.493 128.3 513.543 128.3C512.56 128.3 511.676 128.65 510.893 129.35C510.126 130.05 509.585 130.95 509.268 132.05V140H507.568V132.725C507.568 131.192 507.335 130.075 506.868 129.375C506.401 128.658 505.685 128.3 504.718 128.3C503.751 128.3 502.876 128.642 502.093 129.325C501.31 130.008 500.76 130.908 500.443 132.025V140H498.743V126.975H500.293V129.925C500.843 128.908 501.543 128.125 502.393 127.575C503.26 127.025 504.218 126.75 505.268 126.75C506.351 126.75 507.226 127.058 507.893 127.675C508.56 128.292 508.968 129.1 509.118 130.1C509.718 129 510.435 128.167 511.268 127.6C512.118 127.033 513.076 126.75 514.143 126.75C514.876 126.75 515.493 126.883 515.993 127.15C516.51 127.417 516.918 127.8 517.218 128.3C517.535 128.783 517.76 129.375 517.893 130.075C518.043 130.758 518.118 131.525 518.118 132.375V140ZM521.842 140V126.975H523.542V140H521.842ZM521.842 124.25V121.75H523.542V124.25H521.842ZM538.361 140H536.661V132.725C536.661 131.192 536.436 130.075 535.986 129.375C535.536 128.658 534.828 128.3 533.861 128.3C533.194 128.3 532.536 128.467 531.886 128.8C531.236 129.117 530.661 129.558 530.161 130.125C529.678 130.675 529.328 131.308 529.111 132.025V140H527.411V126.975H528.961V129.925C529.311 129.292 529.769 128.742 530.336 128.275C530.903 127.792 531.544 127.417 532.261 127.15C532.978 126.883 533.719 126.75 534.486 126.75C535.203 126.75 535.811 126.883 536.311 127.15C536.811 127.417 537.211 127.8 537.511 128.3C537.811 128.783 538.028 129.375 538.161 130.075C538.294 130.758 538.361 131.525 538.361 132.375V140ZM541.236 133.525C541.236 132.292 541.486 131.167 541.986 130.15C542.503 129.117 543.211 128.292 544.111 127.675C545.011 127.058 546.036 126.75 547.186 126.75C548.27 126.75 549.236 127.042 550.086 127.625C550.953 128.192 551.628 128.883 552.111 129.7V121.75H553.811V137.95C553.811 138.183 553.861 138.358 553.961 138.475C554.061 138.575 554.211 138.633 554.411 138.65V140C554.078 140.05 553.82 140.067 553.636 140.05C553.286 140.033 552.978 139.892 552.711 139.625C552.445 139.358 552.311 139.067 552.311 138.75V137.475C551.795 138.325 551.095 139 550.211 139.5C549.328 140 548.411 140.25 547.461 140.25C546.561 140.25 545.728 140.067 544.961 139.7C544.211 139.333 543.553 138.833 542.986 138.2C542.436 137.567 542.003 136.85 541.686 136.05C541.386 135.233 541.236 134.392 541.236 133.525ZM552.111 135.525V131.5C551.895 130.9 551.545 130.358 551.061 129.875C550.578 129.375 550.028 128.983 549.411 128.7C548.811 128.4 548.211 128.25 547.611 128.25C546.911 128.25 546.278 128.4 545.711 128.7C545.145 128.983 544.653 129.375 544.236 129.875C543.836 130.375 543.528 130.942 543.311 131.575C543.095 132.208 542.986 132.858 542.986 133.525C542.986 134.225 543.103 134.892 543.336 135.525C543.586 136.158 543.936 136.725 544.386 137.225C544.836 137.708 545.353 138.083 545.936 138.35C546.52 138.617 547.153 138.75 547.836 138.75C548.27 138.75 548.72 138.667 549.186 138.5C549.653 138.333 550.095 138.108 550.511 137.825C550.945 137.525 551.303 137.175 551.586 136.775C551.87 136.375 552.045 135.958 552.111 135.525Z" fill="black"/>
</g>
<defs>
<clipPath id="clip0_2_3">
<rect width="600" height="200" fill="white"/>
</clipPath>
</defs>
</svg>
