<?xml version="1.0" encoding="UTF-8"?>
<!DOCTYPE svg PUBLIC "-//W3C//DTD SVG 1.1//EN" "http://www.w3.org/Graphics/SVG/1.1/DTD/svg11.dtd">
<!-- Creator: CorelDRAW 2019 (64-Bit) -->
<svg xmlns="http://www.w3.org/2000/svg" xml:space="preserve" width="8.4666mm" height="8.4666mm" version="1.1" style="shape-rendering:geometricPrecision; text-rendering:geometricPrecision; image-rendering:optimizeQuality; fill-rule:evenodd; clip-rule:evenodd"
viewBox="0 0 846.66 846.66"
 xmlns:xlink="http://www.w3.org/1999/xlink"
 xmlns:xodm="http://www.corel.com/coreldraw/odm/2003">
 <defs>
  <style type="text/css">
   <![CDATA[
    .fil0 {fill:none}
    .fil2 {fill:#EDB536}
    .fil1 {fill:#D59F35}
    .fil6 {fill:#9ED1CF}
    .fil5 {fill:#83B5B4}
    .fil4 {fill:#445C65}
    .fil3 {fill:#3E585D}
   ]]>
  </style>
 </defs>
 <g id="Layer_x0020_1">
  <metadata id="CorelCorpID_0Corel-Layer"/>
  <rect class="fil0" x="-0.01" y="-0.02" width="846.67" height="846.67"/>
  <g id="_1767732926976">
   <path class="fil1" d="M509.01 530.27c1.35,-1.59 82.98,-108.83 70.6,-232.31 -3.58,-35.83 -12.41,-62.2 -26.64,-81.49 -9.51,-9.63 -19.69,-18.64 -30.45,-26.98 -23.4,-13.44 -53.93,-19.53 -91.84,-21.65 -58.12,-3.27 -137.13,10.45 -213.24,82.2 0,0 148.43,-83.52 265.06,35.03 116.63,126.64 26.51,245.2 26.51,245.2z"/>
   <path class="fil2" d="M553.04 216.55c14.2,19.29 22.99,45.64 26.57,81.41 12.38,123.48 -69.25,230.72 -70.6,232.31 0,0 71.2,-30.36 117.71,-24.02 7.85,-26.33 12.04,-54.16 12.04,-82.92 0,-80.16 -32.6,-152.96 -85.72,-206.78zm-36.36 301.71c-2.42,4.07 -4.98,8.08 -7.67,12.01 0,0 3.23,-4.26 7.67,-12.01z"/>
   <path class="fil3" d="M608.27 553.04c-8.98,1.92 -18.21,4.39 -27.7,7.54 -115.77,43.18 -81.52,127.07 -216.79,160.49 0,0 0.36,0.06 1.04,0.1 107.6,-12.3 198.37,-77.62 243.45,-168.13z"/>
   <path class="fil4" d="M24.29 488.33c18.97,28.18 93.29,123.21 241.51,138.96 177.37,18.83 228.4,-92.67 346.96,-83.75 -1.45,3.18 -2.93,6.35 -4.49,9.48 -8.98,1.91 -18.21,4.41 -27.7,7.56 -89.04,33.21 -97.92,103.14 -152.48,139.7 -17.98,8.12 -40.85,16.43 -66.82,21.29 -10.99,1.13 -22.14,1.71 -33.43,1.71 -148.54,0 -272.77,-100.56 -303.55,-234.95z"/>
   <path class="fil5" d="M304.82 124.2c-34.35,13.3 -147.23,68.76 -182.52,233.55 -0.66,3.16 -1.32,6.35 -1.93,9.59 -0.59,3.07 -1.16,6.22 -1.68,9.36 -26.97,159.39 97.35,227.74 160.25,251.74 -4.32,-0.31 -8.68,-0.68 -13.14,-1.15 -143.58,-15.25 -217.82,-104.92 -239.58,-136.13 -1.45,-4.11 -2.74,-8.14 -3.9,-12.1 -3.52,-18.06 -5.39,-36.7 -5.39,-55.73 0,-158.16 126.96,-287.75 287.89,-299.13z"/>
   <path class="fil6" d="M304.82 124.2c-34.35,13.3 -147.23,68.76 -182.52,233.55 -0.12,2.97 -1.15,5.86 -1.78,8.83l-0.01 0 -0.02 0.15 -0.02 0 -0.01 0.15 -0.04 0.16 -0.02 0.15 -0.03 0.15 -0.03 0.14 -0.03 0.14 -0.02 0.15 -0.04 0.14 -0.02 0.15 -0.03 0.14 -0.03 0.15 -0.02 0.14 -0.99 5.41 -0.02 0.15 -0.02 0.14 -0.01 0.04c11.11,-26.09 33.35,-64.21 77.77,-109.36 12.17,-12.37 25.36,-22.72 39.4,-31.39 70.13,-57.33 141.06,-68.64 194.4,-65.64 37.87,2.12 68.38,8.19 91.79,21.6 -53.28,-41.31 -120.97,-66.06 -194.63,-66.06l0 0c-7.74,0 -15.42,0.28 -23.02,0.82z"/>
   <path class="fil3" d="M829.73 640.81c0,0 -85.16,-141.65 -252.14,-88.78 -115.78,45.03 -78.54,134.17 -213.81,169.03 0,0 72.32,8.96 169.07,-69.71 96.75,-78.69 251.16,-42.15 296.88,-10.54z"/>
  </g>
 </g>
</svg>
